<svg xmlns="http://www.w3.org/2000/svg" width="512" height="512" viewBox="0 0 512 512">
  <rect width="512" height="512" fill="#00b451" rx="128"/>
  <path d="M384 160H128c-17.7 0-32 14.3-32 32v160c0 17.7 14.3 32 32 32h256c17.7 0 32-14.3 32-32V192c0-17.7-14.3-32-32-32zM144 272c-13.3 0-24-10.7-24-24s10.7-24 24-24 24 10.7 24 24-10.7 24-24 24zm112 0c-13.3 0-24-10.7-24-24s10.7-24 24-24 24 10.7 24 24-10.7 24-24 24zm112 0c-13.3 0-24-10.7-24-24s10.7-24 24-24 24 10.7 24 24-10.7 24-24 24z" fill="white"/>
</svg> 